<?xml version="1.0" encoding="utf-8"?><svg width="49" height="36" viewBox="0 0 49 36" xmlns="http://www.w3.org/2000/svg" xmlns:xlink="http://www.w3.org/1999/xlink"><svg width="14" height="14" viewBox="0 0 14 14" id="check" x="35" xmlns="http://www.w3.org/2000/svg"><title>check</title><path fill="#acacac" d="M3.5 1.313h7V.438h-7v.875zm7 0c1.208 0 2.188.979 2.188 2.188h.875A3.063 3.063 0 0 0 10.5.438v.875zM12.688 3.5v7h.875v-7h-.875zm0 7a2.188 2.188 0 0 1-2.188 2.188v.875a3.063 3.063 0 0 0 3.063-3.063h-.875zM10.5 12.688h-7v.875h7v-.875zm-7 0A2.188 2.188 0 0 1 1.312 10.5H.437A3.063 3.063 0 0 0 3.5 13.563v-.875zM1.313 10.5v-7H.438v7h.875zm0-7c0-1.208.979-2.188 2.188-2.188V.437A3.063 3.063 0 0 0 .438 3.5h.875z"/></svg><svg width="14" height="14" viewBox="0 0 14 14" id="checked" y="22" xmlns="http://www.w3.org/2000/svg"><title>checked</title><path fill="#f39c12" d="M11 0a3 3 0 0 1 3 3v8a3 3 0 0 1-3 3H3a3 3 0 0 1-3-3V3a3 3 0 0 1 3-3h8zM7.354 8.682l4.242-4.243-1.414-1.414-4.243 4.243-2.121-2.121-1.414 1.414 3.535 3.535 1.415-1.414z"/></svg><svg width="14" height="14" viewBox="0 0 14 14" id="radio" x="14" y="22" xmlns="http://www.w3.org/2000/svg"><title>radio</title><path fill="#acacac" d="M7 1.313a5.688 5.688 0 0 1 5.688 5.688h.875A6.563 6.563 0 0 0 7 .438v.875zM12.688 7A5.688 5.688 0 0 1 7 12.688v.875A6.563 6.563 0 0 0 13.563 7h-.875zM7 12.688A5.688 5.688 0 0 1 1.312 7H.437A6.563 6.563 0 0 0 7 13.563v-.875zM1.313 7a5.688 5.688 0 0 1 5.688-5.688V.437A6.563 6.563 0 0 0 .438 7h.875z"/></svg><svg width="14" height="14" viewBox="0 0 14 14" id="radio-check" x="28" y="22" xmlns="http://www.w3.org/2000/svg"><title>radio-check</title><path fill="#f39c12" d="M7 4.375a2.625 2.625 0 1 1 0 5.25 2.625 2.625 0 0 1 0-5.25zM7 2.188a4.813 4.813 0 0 1 4.813 4.813h.875A5.688 5.688 0 0 0 7 1.313v.875zM11.813 7A4.813 4.813 0 0 1 7 11.813v.875A5.688 5.688 0 0 0 12.688 7h-.875zM7 11.813A4.813 4.813 0 0 1 2.187 7h-.875A5.688 5.688 0 0 0 7 12.688v-.875zM2.188 7a4.813 4.813 0 0 1 4.813-4.813v-.875A5.688 5.688 0 0 0 1.313 7h.875zM7 1.313a5.688 5.688 0 0 1 5.688 5.688h.875A6.563 6.563 0 0 0 7 .438v.875zM12.688 7A5.688 5.688 0 0 1 7 12.688v.875A6.563 6.563 0 0 0 13.563 7h-.875zM7 12.688A5.688 5.688 0 0 1 1.312 7H.437A6.563 6.563 0 0 0 7 13.563v-.875zM1.313 7a5.688 5.688 0 0 1 5.688-5.688V.437A6.563 6.563 0 0 0 .438 7h.875z"/></svg><svg width="16" height="22" viewBox="0 0 16 22" id="range" xmlns="http://www.w3.org/2000/svg"><title>range</title><desc>Created using Figma</desc><use xlink:href="#ea" transform="translate(1 2)" fill="#ACACAC"/><defs><path id="ea" d="M7.015 0l.652-.759-.65-.558-.652.557.65.76zM14 6h1v-.46l-.348-.299L14 6zM0 6l-.65-.76-.35.3V6h1zM6.363.759l6.985 6 1.304-1.518-6.985-6L6.363.76zM13 6v10h2V6h-2zm0 10a2 2 0 0 1-2 2v2a4 4 0 0 0 4-4h-2zm-2 2H3v2h8v-2zm-8 0a2 2 0 0 1-2-2h-2a4 4 0 0 0 4 4v-2zm-2-2V6h-2v10h2zM.65 6.76l7.015-6-1.3-1.52-7.015 6 1.3 1.52z"/></defs></svg><svg width="19" height="17" viewBox="0 0 19 17" id="zoom" x="16" xmlns="http://www.w3.org/2000/svg"><title>zoom</title><desc>Created using Figma</desc><use xlink:href="#fa" transform="translate(.915)" fill="#3C3D48" opacity=".302"/><defs><path id="fa" fill-rule="evenodd" d="M17.045 15.475c.285.285.035 1.027-.25 1.311-.142.143-.798.214-.984.214a.726.726 0 0 1-.516-.214l-2.459-2.457c-.027-.027-.039-.061-.061-.091-1.425 1.195-2.956 1.63-4.839 1.63a7.89 7.89 0 0 1-5.614-2.324c-3.096-3.093-3.096-8.127 0-11.22A7.89 7.89 0 0 1 7.936 0c2.121 0 4.115.825 5.614 2.324 2.927 2.925 3.333 7.3.725 10.414.03.022.064.034.092.061l2.678 2.676zM7.936 1.988c-3.546 0-5.953 2.346-5.915 6.013.035 3.488 2.296 5.972 5.915 5.972 3.607 0 6.049-2.477 6.072-5.996.024-3.635-2.512-5.989-6.072-5.989zM10.012 9h-1v1a1 1 0 0 1-2 0V9h-1a1 1 0 0 1 0-2h1V6a1 1 0 0 1 2 0v1h1a1 1 0 0 1 0 2z"/></defs></svg></svg>